# xmcd
#
# Track frame offsets: 
#        150
#        27724
#        42965
#        66858
#        89420
#        109288
#        130749
#        149935
#        173837
#        190065
#
# Disc length: 2853 seconds
#
# Revision: 0
# Processed by: cddbd v1.5.2PL0 Copyright (c) Steve Scherf et al.
# Submitted via: ExactAudioCopy v1.1
#
DISCID=980b230a
DTITLE=Qeaux Qeaux Joans - The Ritual
DYEAR=2015
DGENRE=Pop
TTITLE0=Running Out
TTITLE1=Battered Woman
TTITLE2=Nobody Knows
TTITLE3=I Can't Breathe
TTITLE4=All of Me
TTITLE5=The Ritual
TTITLE6=Fading
TTITLE7=Nature's Mistake
TTITLE8=This Boy
TTITLE9=Stronger
EXTD=
EXTT0=
EXTT1=
EXTT2=
EXTT3=
EXTT4=
EXTT5=
EXTT6=
EXTT7=
EXTT8=
EXTT9=
PLAYORDER=
